<svg width="24" height="25" viewBox="0 0 24 25" fill="none" xmlns="http://www.w3.org/2000/svg">
<path d="M17.8099 5.57105V6.31105L14.2699 4.26105C12.9299 3.49105 11.0599 3.49105 9.72994 4.26105L6.18994 6.32105V5.57105C6.18994 3.32105 7.41994 2.08105 9.66994 2.08105H14.3299C16.5799 2.08105 17.8099 3.32105 17.8099 5.57105Z" fill="#292D32"/>
<path d="M17.84 8.05129L17.7 7.98129L16.34 7.20129L13.52 5.57129C12.66 5.07129 11.34 5.07129 10.48 5.57129L7.66 7.19129L6.3 7.99129L6.12 8.08129C4.37 9.26129 4.25 9.48129 4.25 11.3713V15.8913C4.25 17.7813 4.37 18.0013 6.16 19.2113L10.48 21.7013C10.91 21.9613 11.45 22.0713 12 22.0713C12.54 22.0713 13.09 21.9513 13.52 21.7013L17.88 19.1813C19.64 18.0013 19.75 17.7913 19.75 15.8913V11.3713C19.75 9.48129 19.63 9.26129 17.84 8.05129ZM14.79 13.5813L14.18 14.3313C14.08 14.4413 14.01 14.6513 14.02 14.8013L14.08 15.7613C14.12 16.3513 13.7 16.6513 13.15 16.4413L12.26 16.0813C12.12 16.0313 11.89 16.0313 11.75 16.0813L10.86 16.4313C10.31 16.6513 9.89 16.3413 9.93 15.7513L9.99 14.7913C10 14.6413 9.93 14.4313 9.83 14.3213L9.21 13.5813C8.83 13.1313 9 12.6313 9.57 12.4813L10.5 12.2413C10.65 12.2013 10.82 12.0613 10.9 11.9413L11.42 11.1413C11.74 10.6413 12.25 10.6413 12.58 11.1413L13.1 11.9413C13.18 12.0713 13.36 12.2013 13.5 12.2413L14.43 12.4813C15 12.6313 15.17 13.1313 14.79 13.5813Z" fill="#292D32"/>
</svg>
