<svg width="32" height="32" viewBox="0 0 32 32" fill="none" xmlns="http://www.w3.org/2000/svg">
<path d="M23.8912 19.0933C23.5459 19.428 23.3872 19.912 23.4659 20.3867L24.6512 26.9467C24.7512 27.5027 24.5165 28.0653 24.0512 28.3867C23.5952 28.72 22.9885 28.76 22.4912 28.4933L16.5858 25.4133C16.3805 25.304 16.1525 25.2453 15.9192 25.2387H15.5578C15.4325 25.2573 15.3099 25.2973 15.1979 25.3587L9.29118 28.4533C8.99918 28.6 8.66852 28.652 8.34452 28.6C7.55518 28.4507 7.02852 27.6987 7.15785 26.9053L8.34452 20.3453C8.42318 19.8667 8.26452 19.38 7.91918 19.04L3.10452 14.3733C2.70185 13.9827 2.56185 13.396 2.74585 12.8667C2.92452 12.3387 3.38052 11.9533 3.93118 11.8667L10.5578 10.9053C11.0619 10.8533 11.5045 10.5467 11.7312 10.0933L14.6512 4.10668C14.7205 3.97334 14.8099 3.85068 14.9179 3.74668L15.0378 3.65334C15.1005 3.58401 15.1725 3.52668 15.2525 3.48001L15.3979 3.42668L15.6245 3.33334H16.1859C16.6872 3.38534 17.1285 3.68534 17.3592 4.13334L20.3179 10.0933C20.5312 10.5293 20.9459 10.832 21.4245 10.9053L28.0512 11.8667C28.6112 11.9467 29.0792 12.3333 29.2645 12.8667C29.4392 13.4013 29.2885 13.988 28.8779 14.3733L23.8912 19.0933Z" fill="#FD853A"/>
</svg>
