<svg width="24" height="25" viewBox="0 0 24 25" fill="none" xmlns="http://www.w3.org/2000/svg">
<path d="M15.3899 5.29084L16.7999 8.11084C16.9899 8.50084 17.4999 8.87084 17.9299 8.95084L20.4799 9.37084C22.1099 9.64084 22.4899 10.8208 21.3199 12.0008L19.3299 13.9908C18.9999 14.3208 18.8099 14.9708 18.9199 15.4408L19.4899 17.9008C19.9399 19.8408 18.8999 20.6008 17.1899 19.5808L14.7999 18.1608C14.3699 17.9008 13.6499 17.9008 13.2199 18.1608L10.8299 19.5808C9.11994 20.5908 8.07994 19.8408 8.52994 17.9008L9.09994 15.4408C9.18994 14.9608 8.99994 14.3108 8.66994 13.9808L6.67994 11.9908C5.50994 10.8208 5.88994 9.64084 7.51994 9.36084L10.0699 8.94084C10.4999 8.87084 11.0099 8.49084 11.1999 8.10084L12.6099 5.28084C13.3799 3.76084 14.6199 3.76084 15.3899 5.29084Z" fill="#292D32"/>
<path d="M8 5.83105H2C1.59 5.83105 1.25 5.49105 1.25 5.08105C1.25 4.67105 1.59 4.33105 2 4.33105H8C8.41 4.33105 8.75 4.67105 8.75 5.08105C8.75 5.49105 8.41 5.83105 8 5.83105Z" fill="#292D32"/>
<path d="M5 19.8311H2C1.59 19.8311 1.25 19.4911 1.25 19.0811C1.25 18.6711 1.59 18.3311 2 18.3311H5C5.41 18.3311 5.75 18.6711 5.75 19.0811C5.75 19.4911 5.41 19.8311 5 19.8311Z" fill="#292D32"/>
<path d="M3 12.8311H2C1.59 12.8311 1.25 12.4911 1.25 12.0811C1.25 11.6711 1.59 11.3311 2 11.3311H3C3.41 11.3311 3.75 11.6711 3.75 12.0811C3.75 12.4911 3.41 12.8311 3 12.8311Z" fill="#292D32"/>
</svg>
