<svg width="24" height="25" viewBox="0 0 24 25" fill="none" xmlns="http://www.w3.org/2000/svg">
<path d="M18.54 4.2009L13.04 2.1409C12.47 1.9309 11.54 1.9309 10.97 2.1409L5.47005 4.2009C4.41005 4.6009 3.55005 5.8409 3.55005 6.9709V15.0709C3.55005 15.8809 4.08005 16.9509 4.73005 17.4309L10.23 21.5409C11.2 22.2709 12.79 22.2709 13.76 21.5409L19.26 17.4309C19.91 16.9409 20.4401 15.8809 20.4401 15.0709V6.9709C20.4501 5.8409 19.59 4.6009 18.54 4.2009ZM15.48 9.8009L11.18 14.1009C11.03 14.2509 10.84 14.3209 10.65 14.3209C10.46 14.3209 10.27 14.2509 10.12 14.1009L8.52005 12.4809C8.23005 12.1909 8.23005 11.7109 8.52005 11.4209C8.81005 11.1309 9.29005 11.1309 9.58005 11.4209L10.66 12.5009L14.43 8.7309C14.72 8.4409 15.2 8.4409 15.49 8.7309C15.78 9.0209 15.78 9.5109 15.48 9.8009Z" fill="#292D32"/>
</svg>
